PathFileType	4	(X/Y/Z)	C:\Users\Basilio\Documents\Thesis Gigler\squatting_fais\c3dfiles\047\SJ_pre2\markers_experimental.trc
DataRate	CameraRate	NumFrames	NumMarkers	Units	OrigDataRate	OrigDataStartFrame	OrigNumFrames
200.000000	200.000000	4	60	mm	200.000000	818	1636
Frame#	Time	FHD			LBHD			RBHD			C7			T10			CLAV			LSHO			LUUPA			LMUPA			LDUPA			LLEP			LMEP			LRAD			LUL			LRFIN			RSHO			RUPA1			RMUPA			RDUPA			RLEP			RMEP			RRAD			RUL			RUFIN			RASI			USACR			LSACR			RSACR			LTHI1			LTHI2			LTHI3			LTHI4			LLFC			LMFC			LTIB1			LTIB2			LTIB3			LTIB4			LLMAL			LMMAL			LMT1			LMT2			LMT5			RTHI			RTHI2			RTHI3			RTHI4			RLFC			RMFC			RTIB1			RTIB2			RTIB3			RTIB4			RLMAL			RMMAL			RHEE			RMT1			RMT2			RMT5			LASI			
		X1	Y1	Z1	X2	Y2	Z2	X3	Y3	Z3	X4	Y4	Z4	X5	Y5	Z5	X6	Y6	Z6	X7	Y7	Z7	X8	Y8	Z8	X9	Y9	Z9	X10	Y10	Z10	X11	Y11	Z11	X12	Y12	Z12	X13	Y13	Z13	X14	Y14	Z14	X15	Y15	Z15	X16	Y16	Z16	X17	Y17	Z17	X18	Y18	Z18	X19	Y19	Z19	X20	Y20	Z20	X21	Y21	Z21	X22	Y22	Z22	X23	Y23	Z23	X24	Y24	Z24	X25	Y25	Z25	X26	Y26	Z26	X27	Y27	Z27	X28	Y28	Z28	X29	Y29	Z29	X30	Y30	Z30	X31	Y31	Z31	X32	Y32	Z32	X33	Y33	Z33	X34	Y34	Z34	X35	Y35	Z35	X36	Y36	Z36	X37	Y37	Z37	X38	Y38	Z38	X39	Y39	Z39	X40	Y40	Z40	X41	Y41	Z41	X42	Y42	Z42	X43	Y43	Z43	X44	Y44	Z44	X45	Y45	Z45	X46	Y46	Z46	X47	Y47	Z47	X48	Y48	Z48	X49	Y49	Z49	X50	Y50	Z50	X51	Y51	Z51	X52	Y52	Z52	X53	Y53	Z53	X54	Y54	Z54	X55	Y55	Z55	X56	Y56	Z56	X57	Y57	Z57	X58	Y58	Z58	X59	Y59	Z59	X60	Y60	Z60	

819	4.09	225.5153198242188	1057.483154296875	-891.8815917968752	74.41699981689455	1124.024780273438	-971.2341308593752	57.75672149658205	1135.69384765625	-823.7531738281252	-66.16052246093751	1043.822387695313	-901.903015136719	-329.2072448730469	860.4940185546877	-894.0162353515627	-0.5044350624084474	886.4118652343752	-899.592956542969	-23.65355491638184	953.9851074218752	-1073.669311523438	-171.2209014892578	981.2491455078127	-1190.990234375	-172.1117401123047	935.618347167969	-1214.216796875	-222.6685638427735	961.2089843750002	-1235.93701171875	-272.9673461914063	918.2213134765627	-1273.863891601563	-328.0615234375001	945.6541137695315	-1197.253540039063	-337.2440490722657	745.4589233398439	-1096.400512695313	-342.5817565917969	693.0949096679689	-1154.301513671875	-301.1963500976563	695.7792358398439	-1062.575561523438	-24.81356620788575	977.214294433594	-740.1962890625001	-179.7368621826172	1007.205261230469	-614.4735717773439	-181.9632873535157	963.788269042969	-589.8446655273439	-231.416244506836	990.7510375976565	-568.8099365234376	-280.7948608398438	945.1890869140627	-530.7713623046876	-342.5644531250001	964.489440917969	-598.4845581054689	-306.1014099121094	751.2795410156251	-691.4351806640626	-304.7089843750001	708.0819091796876	-627.4811401367189	-277.9216308593751	694.2676391601564	-726.4771118164064	-355.1896057128907	599.8681640625001	-771.7156982421877	-455.9929809570314	769.6587524414065	-890.1444091796877	-483.0462951660157	752.2169189453126	-918.1443481445315	-482.391326904297	751.4439697265626	-859.935485839844	-434.562469482422	589.5654907226564	-1108.595947265625	-354.9616699218751	585.0282592773439	-1128.506591796875	-328.9516906738282	617.6608276367189	-1103.612548828125	-326.9281921386719	539.1416625976564	-1155.426635742188	-196.0214996337891	441.5750122070314	-1191.946533203125	-135.5177764892578	428.065887451172	-1077.488159179688	-194.0813293457032	269.2727050781251	-1106.353149414063	-236.6798400878907	234.4106597900391	-1174.775756835938	-214.0894012451172	225.2471160888672	-1135.773193359375	-259.0880126953126	163.1230926513672	-1100.30859375	-351.3479003906251	95.31860351562501	-1139.563842773438	-315.3492736816407	103.9909286499024	-1055.143310546875	-199.2311706542969	63.99230194091798	-1105.285522460938	-209.9511871337891	61.37913894653322	-1146.91650390625	-258.0613708496094	43.5085792541504	-1186.858520507813	-406.5798645019532	558.2949218750001	-649.4970092773439	-342.4685363769532	559.5966796875001	-631.8908691406251	-322.7865905761719	584.3488769531251	-640.6900024414064	-294.4131469726563	494.5440979003907	-609.9210205078126	-171.6360168457032	421.7635803222657	-600.0850830078126	-121.448471069336	422.7237548828126	-724.0690917968751	-159.3052673339844	298.3028259277344	-627.1216430664064	-260.3621215820313	255.3657226562501	-607.2387084960939	-219.7038879394532	236.1466217041016	-620.8170166015626	-230.5951385498047	194.2678375244141	-661.5335083007814	-361.1050720214844	91.41746520996095	-661.2805175781251	-317.0758056640626	103.0945663452149	-744.2869873046876	-416.2329101562501	53.29599761962892	-725.4629516601564	-203.2884826660157	55.00838851928712	-697.7503662109376	-212.8942871093751	57.08015823364259	-652.3671264648439	-270.2908325195313	30.90608215332032	-605.2807617187501	-368.7106018066407	596.1525878906251	-993.3856201171877	
820	4.095	225.6887817382813	1057.492065429688	-891.8777465820315	74.3624725341797	1124.01611328125	-971.2395019531252	57.7950897216797	1135.6748046875	-823.7835693359377	-66.0657196044922	1043.712280273438	-901.959411621094	-329.1880493164063	860.4922485351565	-894.0483398437502	-0.5190546512603761	886.4058227539065	-899.6157836914065	-23.55222511291504	954.0025634765627	-1073.701171875	-171.1703643798828	981.2397460937502	-1190.970336914063	-172.1190948486328	935.6584472656252	-1214.207641601563	-222.5643615722657	961.2736816406252	-1235.918090820313	-272.9374084472657	918.241638183594	-1273.844604492188	-328.0065002441407	945.6936645507815	-1197.279418945313	-337.2672119140626	745.4718627929689	-1096.37109375	-342.6403808593751	693.1372070312501	-1154.303955078125	-301.0776977539063	695.4543457031251	-1062.694213867188	-24.77206993103028	977.2045898437502	-740.2197875976564	-179.698959350586	1007.166137695313	-614.4213867187501	-181.9845428466797	963.6988525390627	-589.7805786132814	-231.4165649414063	990.7039184570315	-568.8128051757814	-280.8188781738282	945.1621093750002	-530.7222900390626	-342.5020446777344	964.4176025390627	-598.5134887695314	-306.0797424316407	751.2830200195314	-691.4467163085939	-304.7094726562501	708.0676879882814	-627.4663696289064	-277.9158630371094	694.2904052734376	-726.4468994140626	-354.9441833496094	600.0202026367189	-771.7962646484377	-455.9806518554689	769.6817016601565	-890.1445312500002	-483.0575256347657	752.1823730468751	-918.2026977539065	-482.3628234863282	751.4315185546876	-859.956237792969	-434.5341186523439	589.5687255859376	-1108.589233398438	-354.9882507324219	585.0184326171876	-1128.499389648438	-328.8345642089844	617.6426391601564	-1103.639892578125	-326.8283081054688	539.1109619140626	-1155.435791015625	-195.9810485839844	441.5832519531251	-1191.971069335938	-135.5547485351563	427.9622192382814	-1077.621337890625	-194.0644226074219	269.2536926269532	-1106.331420898438	-236.6871795654297	234.4087371826172	-1174.720336914063	-214.1071166992188	225.3115386962891	-1135.739135742188	-259.0644836425782	163.0972290039063	-1100.292236328125	-351.3575744628907	95.26181793212892	-1139.658569335938	-315.3477783203126	104.0452499389649	-1055.126342773438	-199.2622833251954	64.00488281250001	-1105.270385742188	-209.8707733154297	61.45617675781251	-1146.942016601563	-258.0438842773438	43.49561309814454	-1186.860595703125	-406.5935668945314	558.3209228515626	-649.4367065429689	-342.4529418945313	559.6810913085939	-631.8585205078126	-322.7858886718751	584.3410034179689	-640.6939697265626	-294.4900817871094	494.747772216797	-610.2785644531251	-171.7769470214844	421.7535400390626	-599.8755493164064	-121.6152267456055	422.6525268554689	-723.9512329101564	-159.2899475097657	298.3429260253907	-627.1592407226564	-260.4187622070313	255.3019104003907	-607.2344360351564	-219.6997070312501	236.1631774902344	-621.0770874023439	-230.5945434570313	194.2464294433594	-661.5142211914064	-361.1596679687501	91.42214202880861	-661.2034301757814	-317.1649169921876	103.1329421997071	-744.2377929687501	-416.2042541503907	53.33026123046876	-725.5211181640626	-203.3429870605469	54.95082855224611	-697.7606811523439	-212.9044494628907	57.13857269287111	-652.3798828125001	-270.2577514648438	30.93030548095704	-605.2466430664064	-368.5204162597657	596.2905883789064	-993.4592895507815	
821	4.1	225.5729064941407	1057.575073242188	-891.7486572265627	74.28706359863283	1124.078125	-971.1379394531252	57.8611526489258	1135.68310546875	-823.8183593750002	-66.10455322265626	1043.962280273438	-901.8839111328127	-329.1236572265626	860.4797973632815	-894.0811157226565	-0.4885640740394593	886.4161376953127	-899.5712890625002	-23.48231887817383	953.9885864257815	-1073.624145507813	-171.0267181396485	981.2905273437502	-1190.9775390625	-172.0295867919922	935.593688964844	-1214.14990234375	-222.5340270996094	961.3247680664065	-1235.921630859375	-272.9743347167969	918.2999267578127	-1273.848266601563	-327.9829406738282	945.8010253906252	-1197.222412109375	-337.2010498046876	745.4863281250001	-1096.411010742188	-342.5186157226563	693.1993408203126	-1154.351196289063	-300.9520568847657	695.4988403320314	-1062.710815429688	-24.8569622039795	977.1513671875002	-740.2034912109376	-179.6692199707032	1007.161376953125	-614.3780517578126	-181.94921875	963.702331542969	-589.7405395507814	-231.4489898681641	990.696472167969	-568.7682495117189	-280.8199157714844	945.1204833984377	-530.7106933593751	-342.5252990722657	964.449645996094	-598.5455932617189	-306.0679626464844	751.2947387695314	-691.4535522460939	-304.6871337890626	708.0953979492189	-627.5585327148439	-277.9402465820313	694.2415771484376	-726.5411376953126	-353.0828857421876	601.6300659179689	-771.7935791015627	-456.2241821289064	770.025573730469	-890.0515136718752	-483.0160522460939	752.2035522460939	-918.2097167968752	-482.3631286621095	751.4315795898439	-860.005554199219	-434.4597473144532	589.5098876953126	-1108.592651367188	-354.8228149414063	584.9718017578126	-1128.551635742188	-328.8318786621094	617.6170654296876	-1103.650024414063	-326.7768554687501	539.0619506835939	-1155.415771484375	-195.9753723144532	441.630828857422	-1191.876220703125	-135.4454498291016	428.0356750488282	-1077.556884765625	-194.0634765625001	269.2290954589844	-1106.357543945313	-236.6207427978516	234.4457550048829	-1174.764282226563	-214.1608428955079	225.3382415771485	-1135.764282226563	-259.0892333984376	163.1055145263672	-1100.327026367188	-351.3955078125001	95.31713867187501	-1139.61474609375	-315.2980651855469	104.012565612793	-1055.17578125	-199.2252655029297	63.95170974731447	-1105.295776367188	-209.9359893798829	61.32638549804689	-1146.915405273438	-258.0677490234376	43.53535461425782	-1186.874389648438	-406.5937500000001	558.3704223632814	-649.4874267578126	-342.4885864257813	559.6607666015626	-631.9453735351564	-322.7679748535157	584.4039916992189	-640.7608642578126	-294.5559997558594	494.6785583496095	-610.2418823242189	-171.8321228027344	421.787567138672	-599.8042602539064	-121.527458190918	422.646697998047	-723.9490356445314	-159.2810516357422	298.3208007812501	-627.0925292968751	-260.4174499511719	255.2969207763672	-607.2428588867189	-219.7358551025391	236.2187042236329	-620.8314819335939	-230.5774536132813	194.2715148925782	-661.5152587890626	-361.1456909179688	91.44396972656251	-661.2129516601564	-317.0898132324219	103.0992126464844	-744.2754516601564	-416.2114257812501	53.3058433532715	-725.5039672851564	-202.9602355957032	54.82425689697267	-697.7592163085939	-212.8963623046876	57.1184768676758	-652.3728027343751	-270.2670593261719	30.94272613525391	-605.2043457031251	-366.2916870117188	597.9499511718751	-993.4763183593752	
822	4.105	225.4915924072266	1057.581665039063	-891.6528320312502	74.35007476806642	1124.042358398438	-971.0465087890627	57.85466384887697	1135.644897460938	-823.7895507812502	-66.00853729248048	1043.909301757813	-901.9056396484377	-329.0842895507813	860.501647949219	-894.1018676757815	-0.4904843270778657	886.406921386719	-899.577331542969	-23.4697437286377	953.9851074218752	-1073.597900390625	-170.8974151611328	981.3912353515627	-1191.008056640625	-172.0088500976563	935.6790161132815	-1214.098754882813	-222.4312438964844	961.3472900390627	-1235.876342773438	-272.9001159667969	918.3447875976565	-1273.804809570313	-327.8800048828126	945.8762207031252	-1197.180786132813	-337.1219482421876	745.5018310546876	-1096.409423828125	-342.5155639648438	693.2098999023439	-1154.348876953125	-300.9899902343751	695.7807006835939	-1062.665283203125	-24.77383422851563	977.1690063476565	-740.2108154296876	-179.6457672119141	1007.137329101563	-614.3737182617189	-181.9443969726563	963.6816406250002	-589.7562255859376	-231.4213104248047	990.6917724609377	-568.7792968750001	-280.8318481445313	945.1149902343752	-530.7749023437501	-342.4802246093751	964.4554443359377	-598.5563354492189	-306.0561523437501	751.3024291992189	-691.4503784179689	-304.7923583984376	708.1657104492189	-627.5993652343751	-277.9916076660157	694.2100219726564	-726.5360717773439	-353.4923706054688	601.5772705078126	-771.5825195312502	-456.1903076171876	770.0598754882815	-890.0867919921877	-482.9804077148439	752.2401123046876	-918.269958496094	-482.4580078125001	751.4795532226564	-860.0474243164065	-434.3881225585939	589.4483032226564	-1108.665893554688	-354.7931213378907	584.9717407226564	-1128.536743164063	-328.7680053710938	617.5941772460939	-1103.651977539063	-326.6920166015626	539.0601806640626	-1155.413940429688	-195.8567962646485	441.5635986328126	-1191.91259765625	-135.4347686767578	427.9547729492189	-1077.690185546875	-194.0192108154297	269.2272338867188	-1106.300537109375	-236.5909271240235	234.4033355712891	-1174.723266601563	-214.1170501708985	225.2663574218751	-1135.717407226563	-259.0685424804688	163.3344421386719	-1100.76025390625	-351.3794250488282	95.31472015380861	-1139.595458984375	-315.3204040527344	104.0401306152344	-1055.113525390625	-199.2443847656251	63.96776199340822	-1105.2890625	-209.8833160400391	61.36703872680665	-1146.929931640625	-258.0262451171876	43.52513122558594	-1186.8916015625	-406.6632080078126	558.4862060546876	-649.4333496093751	-342.4975280761719	559.6956176757814	-631.9636230468751	-322.7825622558594	584.4129638671876	-640.7282104492189	-294.3961486816407	494.7052612304689	-610.1292724609376	-171.7652587890625	421.8386535644532	-599.8559570312501	-121.5304870605469	422.7061767578126	-723.9275512695314	-159.2923278808594	298.3308715820313	-627.0388793945314	-260.4445800781251	255.2505798339844	-607.2887573242189	-219.6928863525391	236.1976318359376	-620.5847778320314	-230.5630187988282	194.2405395507813	-661.5250244140626	-361.2102966308594	91.38507080078126	-661.3405761718751	-317.1126708984376	103.1242065429688	-744.2537231445314	-416.2163391113282	53.29963302612306	-725.4508666992189	-202.9761199951172	54.76255798339845	-697.7602539062501	-212.869613647461	57.12028121948244	-652.3609008789064	-270.2707519531251	30.92635917663575	-605.2568969726564	-366.2925109863282	597.8385620117189	-993.2847290039065	
